<svg width="146" height="144" viewBox="0 0 146 144" fill="none" xmlns="http://www.w3.org/2000/svg">
<path d="M27.1929 40.0163L37.3469 45.1117C39.2161 45.931 41.2499 46.3002 43.2863 46.1896C45.3227 46.079 47.305 45.4918 49.0749 44.4747L58.6707 38.2074C60.3218 37.0046 61.6657 35.4263 62.5922 33.6019C63.5188 31.7775 64.0019 29.7587 64.0014 27.7109L63.3924 16.2208C63.17 14.1895 62.4755 12.2387 61.3644 10.5262C60.253 8.8136 58.7565 7.38689 56.9951 6.36118L46.841 1.13841C44.9757 0.309385 42.9418 -0.0671632 40.9044 0.0390758C38.867 0.145315 36.8829 0.731283 35.113 1.74985L25.5177 8.01719C23.8695 9.22302 22.5276 10.8018 21.6016 12.6257C20.6752 14.4494 20.1904 16.4669 20.1866 18.5137L20.7958 30.0038C20.9931 32.0629 21.6762 34.045 22.7886 35.7861C23.9009 37.5274 25.4108 38.9776 27.1929 40.0163Z" fill="white"/>
<path d="M88.447 54.8951L78.293 49.6723C76.4284 48.8532 74.3986 48.4843 72.3663 48.5949C70.3339 48.7055 68.3559 49.2927 66.5904 50.3092L56.8933 56.5766C55.2511 57.788 53.9136 59.3681 52.988 61.1907C52.0625 63.0131 51.5741 65.0275 51.5624 67.0731L52.1719 78.5632C52.394 80.5947 53.0885 82.5455 54.1996 84.2581C55.311 85.9706 56.8075 87.3973 58.5687 88.4228L68.7227 93.5182C70.584 94.3469 72.6135 94.7237 74.6471 94.6175C76.6805 94.5113 78.66 93.925 80.4253 92.9067L90.0463 86.6394C91.6892 85.4226 93.0265 83.8379 93.9518 82.0112C94.8773 80.1848 95.3655 78.1665 95.3772 76.1174L94.7679 64.6528C94.5351 62.6475 93.8434 60.7232 92.747 59.0305C91.6504 57.3378 90.1788 55.9226 88.447 54.8951Z" fill="white"/>
<path d="M119.772 103.353L109.618 98.2571C107.753 97.4279 105.719 97.0513 103.682 97.1576C101.644 97.2638 99.6604 97.8498 97.8905 98.8686L88.2952 105.136C86.6497 106.344 85.3101 107.924 84.3843 109.747C83.4583 111.57 82.9719 113.586 82.964 115.632L83.5735 127.123C83.8165 129.121 84.5156 131.037 85.6163 132.72C86.7167 134.404 88.1896 135.81 89.9198 136.829L100.074 141.925C101.943 142.744 103.977 143.113 106.013 143.002C108.049 142.892 110.032 142.305 111.802 141.288L121.423 135.02C123.066 133.812 124.403 132.232 125.325 130.408C126.246 128.584 126.727 126.569 126.728 124.524L126.195 113.238C125.976 111.199 125.28 109.241 124.164 107.523C123.048 105.805 121.543 104.376 119.772 103.353Z" fill="white"/>
<path d="M44.9625 74.8178L44.4802 65.8754C44.4918 63.8298 44.98 61.8154 45.9058 59.993C46.8313 58.1704 48.1686 56.5903 49.811 55.3789L68.5199 43.1754C70.2852 42.1589 72.2634 41.5716 74.2958 41.4611C76.3281 41.3505 78.3579 41.7197 80.2225 42.5385L88.1934 46.6148C90.059 47.4438 92.0926 47.8206 94.13 47.7144C96.1676 47.6082 98.1515 47.0219 99.9213 46.0034L109.517 39.7105C111.164 38.5034 112.504 36.9244 113.43 35.1007C114.356 33.2774 114.842 31.2609 114.848 29.214L114.239 17.7494C114.02 15.7135 113.327 13.7577 112.216 12.0405C111.105 10.3231 109.606 8.89258 107.842 7.86433L97.6874 2.64155C95.8186 1.82246 93.7847 1.4533 91.7481 1.56387C89.7117 1.67444 87.7293 2.26169 85.9595 3.27847L76.1608 9.4439C74.5171 10.6525 73.1804 12.2326 72.2586 14.0563C71.3369 15.8799 70.8561 17.8956 70.8553 19.9404L71.3123 28.8828C71.3115 30.9279 70.8304 32.9436 69.9087 34.7672C68.987 36.5909 67.6502 38.171 66.0068 39.3793L47.2979 51.5828C45.5281 52.6014 43.5442 53.1876 41.5068 53.2938C39.4691 53.4001 37.4355 53.0233 35.57 52.1943L27.6244 48.1434C25.7589 47.3144 23.7253 46.9379 21.6876 47.0441C19.6502 47.1503 17.6663 47.7363 15.8965 48.7549L6.30088 55.0222C4.65262 56.228 3.31102 57.8068 2.38472 59.6307C1.45841 61.4546 0.973809 63.4719 0.970001 65.5187L1.57924 77.0088C1.79552 79.0455 2.48777 81.0021 3.59914 82.7197C4.71075 84.4374 6.21025 85.8674 7.9763 86.8939L18.1304 91.9893C19.9992 92.8086 22.0331 93.1778 24.0695 93.0672C26.1059 92.9566 28.0884 92.3694 29.8583 91.3524L39.4539 85.085C41.1029 83.92 42.4587 82.3858 43.415 80.6036C44.371 78.8218 44.9008 76.8409 44.9625 74.8178Z" fill="white"/>
<path d="M145.463 66.2071C145.236 64.1733 144.54 62.2207 143.43 60.5046C142.319 58.7885 140.825 57.3561 139.065 56.322L128.911 51.2266C127.042 50.4093 125.008 50.0412 122.972 50.1518C120.936 50.2623 118.954 50.8486 117.183 51.8636L107.588 58.1309C105.942 59.3395 104.603 60.9188 103.677 62.742C102.751 64.5651 102.265 66.5811 102.257 68.6274L102.739 77.5953C102.731 79.6414 102.245 81.6574 101.319 83.4805C100.393 85.3036 99.0536 86.8832 97.4082 88.0918L78.7247 100.27C76.9548 101.287 74.9725 101.874 72.9361 101.984C70.8997 102.095 68.8659 101.726 66.9968 100.907L59.0258 96.8304C57.1613 96.0113 55.1315 95.6422 53.0991 95.7527C51.0668 95.8636 49.0888 96.4506 47.3233 97.4674L37.6261 103.709C35.984 104.921 34.6467 106.5 33.7209 108.323C32.7953 110.145 32.3072 112.16 32.2955 114.206L32.9045 125.696C33.1269 127.727 33.8214 129.678 34.9325 131.39C36.0439 133.103 37.5403 134.53 39.3018 135.555L49.4559 140.778C51.3168 141.607 53.3464 141.984 55.3797 141.877C57.4134 141.771 59.3929 141.185 61.1584 140.167L70.7791 133.899C72.42 132.686 73.7566 131.106 74.6819 129.284C75.6074 127.462 76.0963 125.448 76.1103 123.403L75.628 114.435C75.6335 112.388 76.1192 110.372 77.0452 108.548C77.9713 106.725 79.3119 105.146 80.9586 103.938L99.6421 91.735C101.412 90.7165 103.396 90.1302 105.433 90.024C107.471 89.9178 109.504 90.2943 111.37 91.1233L119.316 95.1744C121.181 96.0034 123.215 96.38 125.252 96.2737C127.29 96.1675 129.274 95.5815 131.043 94.563L140.665 88.2956C142.307 87.0855 143.642 85.5051 144.564 83.682C145.486 81.8586 145.967 79.8434 145.97 77.7991L145.463 66.2071Z" fill="white"/>
</svg>
