<svg width="145" height="143" viewBox="0 0 145 143" fill="none" xmlns="http://www.w3.org/2000/svg">
<path d="M45.3125 58.0587L22.6713 44.5714L0 58.0587V84.9719L22.6713 98.4286L45.3125 84.9719V58.0587ZM40.4372 82.0774L22.6713 92.6087L4.90517 82.0774V60.9533L22.6713 50.3913L40.4372 60.9533V82.0774Z" fill="#FCF9FE"/>
<path d="M94.25 58.0281L72.4857 44.5714L50.75 58.0281V84.9413L72.4857 98.4286L94.25 84.9413V58.0281Z" fill="#FCF9FE"/>
<path d="M122.329 44.5714L99.6875 58.0587V84.9719L122.329 98.4286L145 84.9719V58.0587L122.329 44.5714ZM140.095 82.0774L122.329 92.6087L104.563 82.0774V60.9533L122.329 50.3913L140.095 60.9533V82.0774Z" fill="#FCF9FE"/>
<path d="M25.375 102.63V129.544L48.076 143L70.6875 129.544V102.63L48.076 89.1429L25.375 102.63ZM65.729 126.741L48.076 137.18L30.1542 126.741V105.525L48.076 94.9628L65.7889 105.525L65.729 126.741Z" fill="#FCF9FE"/>
<path d="M74.3125 102.63V129.544L96.9537 143L119.625 129.544V102.63L96.9537 89.1429L74.3125 102.63ZM114.72 126.741L96.9537 137.273L79.2177 126.741V105.525L96.9537 94.9628L114.72 105.525V126.741Z" fill="#FCF9FE"/>
<path d="M70.6875 40.4005V13.395L48.1061 0L25.375 13.395V40.3082L48.1061 53.8571L70.6875 40.4005ZM30.1605 16.4743L48.1061 5.81992L65.7825 16.4743V37.5984L48.1061 48.0372L30.1605 37.5059V16.4743Z" fill="#FCF9FE"/>
<path d="M119.625 40.493V13.4873L96.9537 0L74.3125 13.4873V40.4005L96.9537 53.8571L119.625 40.493ZM79.2177 16.5666L96.9537 6.0047L114.72 16.5666V37.6907L96.9537 48.222L79.2177 37.6907V16.5666Z" fill="#FCF9FE"/>
</svg>
