<svg width="145" height="143" viewBox="0 0 145 143" fill="none" xmlns="http://www.w3.org/2000/svg">
<path d="M123.77 20.9462C113.631 10.9456 100.713 4.13474 86.6486 1.37484C72.5847 -1.38506 58.0067 0.0301225 44.7584 5.4414C31.5101 10.8527 20.1863 20.0172 12.2194 31.7754C4.25238 43.5338 0 57.3581 0 71.5C0 85.6419 4.25238 99.4662 12.2194 111.225C20.1863 122.983 31.5101 132.147 44.7584 137.559C58.0067 142.97 72.5847 144.385 86.6486 141.625C100.713 138.865 113.631 132.054 123.77 122.054C137.363 108.645 145 90.4608 145 71.5C145 52.5392 137.363 34.3547 123.77 20.9462ZM18.9083 47.3036C22.5615 39.3125 27.9746 32.2245 34.7544 26.5556C41.534 20.8867 49.5095 16.779 58.1007 14.5316C66.6922 12.2842 75.6835 11.9535 84.4208 13.5635C93.1581 15.1736 101.422 18.6837 108.611 23.8389C90.8151 22.1813 68.5379 31.1513 50.4789 48.9287C43.6631 55.6395 37.8888 63.3056 33.3425 71.6788C27.159 64.4235 22.2774 56.1798 18.9083 47.3036ZM58.8822 130.244C45.1217 126.608 33.1265 118.252 25.0511 106.678C16.9756 95.1044 13.3488 81.0703 14.8221 67.0961C22.3026 83.1187 41.1857 97.6787 65.9675 104.179C75.219 106.654 84.7939 107.749 94.3743 107.429C91.1183 116.311 86.3604 124.586 80.3026 131.901C73.1157 132.618 65.8564 132.034 58.8822 130.179V130.244ZM103.997 62.2862C101.554 53.1212 97.7567 44.3606 92.7265 36.2862C102.149 34.632 111.788 34.5662 121.232 36.0912C125.46 41.863 128.576 48.3516 130.426 55.2337C134.12 68.8065 132.784 83.2332 126.659 95.9216C120.534 108.61 110.022 118.728 97.0107 124.459C107.293 110.126 110.588 86.6286 103.997 62.2862Z" fill="#FFFEFF"/>
</svg>
