<svg width="78" height="100" viewBox="0 0 78 100" fill="none" xmlns="http://www.w3.org/2000/svg">
<path d="M76.8942 13.0875C79.865 19.2292 70.8317 19.8833 71.2942 22.625C72.1442 27.5667 71.565 34.9042 70.9108 42.125C69.7858 54.3625 78.94 83.6667 59.8692 95.4417C56.2775 97.6833 47.7442 98.9167 39.3275 99.1083H39.2859H39.2483C30.8317 98.9167 21.14 97.6833 17.5483 95.4417C-1.48499 83.6667 7.66501 54.3625 6.58585 42.125C5.89001 34.9042 5.31085 27.5667 6.19835 22.625C6.66085 19.8833 -2.37249 19.2667 0.602515 13.0875C3.14835 7.79583 9.44418 12.4708 11.0233 10.8083C19.0942 2.4375 28.9025 0.191667 36.6233 0H40.8733C48.5525 0.3875 58.3608 2.47083 66.4692 10.8083C68.0525 12.4708 74.3067 7.8 76.8942 13.0875ZM35.0775 45.1708C34.7317 45.3292 34.1525 49.1125 35.9275 49.3042C37.1275 49.4208 40.4067 49.8042 41.1775 49.3042C42.6858 48.3375 42.5317 46.0208 41.6817 45.4417C40.2525 44.5167 35.465 44.9833 35.0775 45.175V45.1708ZM25.2775 16.8375C21.2983 16.375 14.6192 20.0792 13.615 27.9583C12.5317 36.1417 22.1858 44.25 31.4525 36.1417C36.4358 31.7792 38.1733 18.3417 25.2775 16.8375ZM52.1525 16.8375C39.2525 18.3417 40.99 31.7792 45.9733 36.1417C55.2358 44.25 64.89 36.1417 63.8067 27.9583C62.8442 20.0833 56.165 16.375 52.1483 16.8375H52.1525Z" fill="#8CC5E7"/>
<path d="M38.7483 37.1792C41.1817 36.8333 47.0108 39.6125 46.6233 42.8958C46.1608 46.7167 31.6025 47.2208 30.8317 42.6625C30.3692 39.8833 32.5692 38.1083 38.7483 37.1792ZM71.6025 67.9542C70.4067 67.9125 69.6358 66.3292 69.6358 65.3667C69.6358 63.6292 69.865 61.5833 71.14 60.6958C73.765 58.8792 75.8483 67.9917 71.6025 67.9542ZM5.85251 67.9542C1.60251 67.9917 3.68584 58.8792 6.31501 60.6958C7.59001 61.5833 7.81917 63.6292 7.81917 65.3625C7.81917 66.3333 7.04834 67.9125 5.85251 67.9542ZM63.5358 95.9458C64.3067 97.0667 64.3442 97.8375 63.1108 98.4167C58.4025 100.579 54.1942 97.6833 55.7775 96.875C59.1317 95.175 61.2192 92.5083 63.5358 95.9458ZM13.9192 96.3333C16.2358 92.8958 18.3233 95.5583 21.6817 97.2583C23.265 98.0708 19.0567 100.967 14.3483 98.8C13.1108 98.225 13.1483 97.45 13.9192 96.3333V96.3333Z" fill="#B8937F"/>
<ellipse cx="26" cy="26.5" rx="11" ry="10.5" fill="white"/>
<ellipse cx="50" cy="26.5" rx="11" ry="10.5" fill="white"/>
<path d="M69.5346 13.7323C69.7262 12.9198 71.7346 12.5323 72.8554 13.924C74.2054 15.5823 70.8846 17.8615 70.7304 16.9365C70.3471 14.424 69.3054 14.5407 69.5346 13.7282V13.7323ZM7.64291 13.7323C7.87624 14.5407 6.83041 14.424 6.44707 16.9365C6.29291 17.8615 2.97207 15.5823 4.32207 13.924C5.40541 12.5323 7.40957 12.9198 7.64291 13.7323ZM52.8929 32.5323C51.726 32.5323 50.6068 32.0688 49.7816 31.2436C48.9565 30.4185 48.4929 29.2993 48.4929 28.1323C48.4929 26.9654 48.9565 25.8462 49.7816 25.0211C50.6068 24.1959 51.726 23.7323 52.8929 23.7323C54.0599 23.7323 55.179 24.1959 56.0042 25.0211C56.8293 25.8462 57.2929 26.9654 57.2929 28.1323C57.2929 29.2993 56.8293 30.4185 56.0042 31.2436C55.179 32.0688 54.0599 32.5323 52.8929 32.5323ZM51.7346 27.6282C51.9235 27.6385 52.1125 27.6103 52.2901 27.5451C52.4676 27.4799 52.6301 27.3793 52.7675 27.2492C52.9048 27.1192 53.0142 26.9625 53.089 26.7887C53.1638 26.6149 53.2024 26.4278 53.2024 26.2386C53.2024 26.0494 53.1638 25.8622 53.089 25.6885C53.0142 25.5147 52.9048 25.358 52.7675 25.228C52.6301 25.0979 52.4676 24.9973 52.2901 24.9321C52.1125 24.8669 51.9235 24.8387 51.7346 24.849C51.3792 24.8685 51.0448 25.0234 50.8001 25.2818C50.5554 25.5403 50.419 25.8827 50.419 26.2386C50.419 26.5945 50.5554 26.9369 50.8001 27.1954C51.0448 27.4538 51.3792 27.6087 51.7346 27.6282ZM34.6304 38.7532C35.0929 36.974 36.7137 36.3948 38.0304 36.3573C41.3887 36.2782 42.6637 38.0948 42.7804 39.524C43.0096 41.9532 33.5887 42.5323 34.6304 38.749V38.7532ZM24.2846 32.5282C23.1176 32.5282 21.9985 32.0646 21.1733 31.2395C20.3481 30.4143 19.8846 29.2951 19.8846 28.1282C19.8846 26.9612 20.3481 25.8421 21.1733 25.0169C21.9985 24.1917 23.1176 23.7282 24.2846 23.7282C25.4515 23.7282 26.5707 24.1917 27.3958 25.0169C28.221 25.8421 28.6846 26.9612 28.6846 28.1282C28.6846 29.2951 28.221 30.4143 27.3958 31.2395C26.5707 32.0646 25.4515 32.5282 24.2846 32.5282ZM25.4429 27.624C25.6318 27.6344 25.8208 27.6061 25.9984 27.5409C26.176 27.4758 26.3384 27.3751 26.4758 27.245C26.6132 27.115 26.7226 26.9583 26.7974 26.7845C26.8721 26.6108 26.9107 26.4236 26.9107 26.2344C26.9107 26.0453 26.8721 25.8581 26.7974 25.6843C26.7226 25.5106 26.6132 25.3539 26.4758 25.2238C26.3384 25.0938 26.176 24.9931 25.9984 24.9279C25.8208 24.8628 25.6318 24.8345 25.4429 24.8448C25.0875 24.8643 24.7531 25.0192 24.5084 25.2777C24.2637 25.5361 24.1274 25.8785 24.1274 26.2344C24.1274 26.5903 24.2637 26.9327 24.5084 27.1912C24.7531 27.4497 25.0875 27.6045 25.4429 27.624Z" fill="black"/>
</svg>
