<svg width="88" height="88" viewBox="0 0 88 88" fill="none" xmlns="http://www.w3.org/2000/svg">
<path fill-rule="evenodd" clip-rule="evenodd" d="M51.4687 0C50.8681 0.00682948 50.2726 0.112405 49.7062 0.3125C54.7406 3.61875 48.8312 8.41875 51.5812 12.5C51.3888 11.1338 51.6056 9.74132 52.204 8.49825C52.8025 7.25517 53.7558 6.21728 54.9437 5.51563C55.8343 4.775 56.4031 4.50938 56.2125 3.28438C55.9125 1.27813 53.2375 0 51.4687 0ZM58.6562 1.29375C57.9625 4.80313 57.0937 4.93125 54.5218 7.19063C53.5177 7.98069 52.8089 9.08583 52.5095 10.3279C52.2102 11.5701 52.3378 12.8768 52.8718 14.0375C42.2468 9.9125 28.6281 7.41875 18.6437 14.5562C15.0531 17.1219 12.8593 20.8062 8.43122 22.3094C5.56872 23.2875 2.75622 23 0.968716 25.8375C0.312694 26.6568 -0.0300064 27.6831 0.002063 28.7322C0.0341324 29.7814 0.438874 30.7847 1.14372 31.5625C1.67497 32.1094 2.70622 32.4594 3.13122 33.0156C3.37809 33.3281 3.37184 33.6406 3.60622 34.0562C4.01943 35.0254 4.61817 35.9044 5.36872 36.6437C5.82497 37.0219 7.40622 37.3906 7.67497 37.7937C8.00934 38.2969 7.13434 40.2938 7.86872 40.6063C8.36559 40.8344 9.81247 38.2813 9.95309 38.0563C9.66559 40.0656 9.28747 43.6313 11.5468 40.6625C12.6187 39.2531 12.6843 38.7875 14.4875 38.475C18.0461 37.8655 21.6925 38.0002 25.1965 38.8707C28.7005 39.7412 31.986 41.3286 34.8457 43.5326C37.7054 45.7366 40.0773 48.5095 41.8115 51.6762C43.5458 54.8429 44.6048 58.3347 44.9218 61.9313C44.5843 60.3688 42.5437 57.8688 40.6437 58.4625C39.8343 58.7125 39.5343 60.1094 39.0031 60.9187C38.3324 61.9457 37.5046 62.861 36.55 63.6312C36.713 62.1163 36.637 60.5851 36.325 59.0937C35.7562 61.4312 34.6156 65.3094 31.7437 64.6812C30.787 64.5352 29.8906 64.1231 29.1568 63.4921C28.423 62.8611 27.8814 62.0365 27.5937 61.1125C27.2218 58.7375 29.7312 55.9531 25.6968 55.7562C17.6031 55.3594 19.475 67.2625 24.2531 70.3656C23.155 70.4871 22.0838 70.7858 21.0812 71.25C24.114 73.0124 27.5313 74.0074 31.0362 74.1487C34.541 74.29 38.0273 73.5733 41.1922 72.0608C44.357 70.5483 47.1046 68.2858 49.1962 65.4699C51.2877 62.654 52.66 59.37 53.1937 55.9031C54.3067 60.9747 53.5917 66.2764 51.175 70.8719C50.1634 72.793 48.8676 74.5503 47.3312 76.0844C46.3937 77.0219 44.5375 78.0531 43.9281 79.025C47.7207 78.5236 51.4269 77.5058 54.9437 76C51.3036 80.9603 46.4654 84.9169 40.8812 87.5C46.8773 87.0755 52.6735 85.1653 57.7472 81.9417C62.8208 78.718 67.0123 74.2823 69.9437 69.0344C69.0095 74.2831 66.9346 79.2627 63.8656 83.6219C67.9935 80.8584 71.5054 77.2712 74.1809 73.0857C76.8563 68.9002 78.6375 64.2067 79.4125 59.3C80.1805 62.892 80.4007 66.5796 80.0656 70.2375C83.4576 65.5263 85.7494 60.1141 86.7721 54.3996C87.7948 48.6851 87.5224 42.814 85.975 37.2187C84.7907 32.8695 83.0147 28.7035 80.6968 24.8375C79.7998 23.331 78.818 21.8766 77.7562 20.4812C77.3406 19.9406 75.1187 17.9625 75.1187 17.3562C75.1 17.4167 75.0843 17.4167 75.0718 17.3562C75.0718 27.5625 64.1343 33.9531 54.975 31.3031C58.5206 31.0248 61.8653 29.5453 64.4562 27.1088C67.0472 24.6724 68.7294 21.425 69.225 17.9031C69.643 14.3417 68.8204 10.7451 66.8958 7.71958C64.9711 4.69402 62.0622 2.42456 58.6593 1.29375H58.6562Z" fill="url(#paint0_linear_58_42)"/>
<path d="M39.4437 78.4812L44.6625 75.3562C44.9331 76.2585 45.4676 77.0592 46.1972 77.6551C46.9268 78.251 47.8181 78.6149 48.7562 78.7C50.85 78.7 52.1937 77.8875 52.1937 74.6687V52.7937H58.4437V74.6687C58.5776 75.8018 58.4869 76.9501 58.177 78.0482C57.867 79.1462 57.3438 80.1724 56.6372 81.0682C55.9305 81.9641 55.0544 82.7119 54.0587 83.2691C53.0631 83.8263 51.9674 84.1819 50.8343 84.3156C50.1853 84.3875 49.5303 84.3875 48.8812 84.3156C46.8793 84.4225 44.8919 83.9217 43.1798 82.8788C41.4676 81.8359 40.1108 80.2997 39.2875 78.4718L39.4437 78.4812ZM62.0687 77.7843L67.2875 74.6593C67.8644 75.8237 68.7553 76.8036 69.8597 77.4883C70.9641 78.1731 72.238 78.5354 73.5375 78.5343C74.4864 78.7707 75.4904 78.6207 76.3288 78.1174C77.1673 77.6141 77.7717 76.7986 78.0094 75.85C78.0312 75.7562 78.0531 75.6625 78.0687 75.5656C78.0687 73.3781 76.3187 72.4406 73.4125 71.3156L71.8187 70.625C67.1937 68.6562 64.1312 66.1875 64.1312 60.9687C64.1494 58.6989 65.0681 56.5291 66.6854 54.9364C68.3028 53.3437 70.4864 52.4583 72.7562 52.475C73.0093 52.475 73.2593 52.475 73.5125 52.5125C75.3655 52.3691 77.2194 52.7797 78.8386 53.6922C80.4578 54.6048 81.7692 55.978 82.6062 57.6375L77.6375 60.7625C77.3125 59.938 76.7432 59.2327 76.0058 58.7412C75.2685 58.2496 74.3985 57.9953 73.5125 58.0125C73.1501 57.967 72.7822 57.9934 72.43 58.0902C72.0778 58.1871 71.7482 58.3524 71.46 58.5768C71.1717 58.8011 70.9306 59.0801 70.7503 59.3978C70.57 59.7155 70.4542 60.0656 70.4093 60.4281C70.3942 60.5389 70.3869 60.6506 70.3875 60.7625C70.3875 62.6687 71.575 63.45 74.325 64.6375L75.9187 65.325C81.1937 67.6687 84.3187 70.0437 84.3187 75.4187C84.3187 80.7937 79.7875 84.325 73.725 84.325C71.3589 84.478 68.9991 83.9427 66.9306 82.7837C64.8622 81.6247 63.1736 79.8916 62.0687 77.7937" fill="#F7DF1E"/>
<defs>
<linearGradient id="paint0_linear_58_42" x1="43.6843" y1="87.5" x2="43.6843" y2="0" gradientUnits="userSpaceOnUse">
<stop stop-color="#FFB199"/>
<stop offset="1" stop-color="#FF0844"/>
</linearGradient>
</defs>
</svg>
