<svg width="97" height="100" viewBox="0 0 97 100" fill="none" xmlns="http://www.w3.org/2000/svg">
<path d="M96.4813 59.743C95.8999 57.982 94.3768 56.7555 92.4071 56.4612C91.4783 56.3225 90.4147 56.3816 89.156 56.6411C86.962 57.0938 85.3344 57.2661 84.1465 57.2994C88.6302 49.7294 92.276 41.0968 94.3749 32.9707C97.7688 19.8309 95.9552 13.8449 93.8359 11.1373C88.2272 3.97066 80.0442 0.120655 70.1723 0.00285216C64.906 -0.0615418 60.2829 0.978231 57.8711 1.72596C55.6257 1.32975 53.2113 1.10853 50.6779 1.06762C45.9291 0.991867 41.7332 2.02709 38.148 4.15475C36.1632 3.48353 32.9776 2.53732 29.2988 1.93353C20.6465 0.513079 13.673 1.6199 8.57225 5.22331C2.39574 9.58619 -0.467519 17.1665 0.0620261 27.7536C0.230208 31.115 2.11051 41.3422 5.07112 51.0415C6.77263 56.6165 8.58703 61.246 10.4639 64.8029C13.1257 69.8464 15.9738 72.8165 19.1711 73.8832C20.9632 74.4801 24.2192 74.8983 27.6438 72.046C28.0779 72.5718 28.6571 73.0941 29.4257 73.5794C30.4018 74.1949 31.5954 74.6979 32.7874 74.996C37.0832 76.0699 41.1071 75.8013 44.5401 74.296C44.5613 74.9066 44.5776 75.49 44.5912 75.9938C44.6139 76.8108 44.6366 77.6119 44.6666 78.3612C44.87 83.4271 45.2147 87.3661 46.2359 90.1222C46.292 90.2737 46.3673 90.5047 46.4469 90.7498C46.9563 92.3097 47.8082 94.921 49.9757 96.9661C52.22 99.0847 54.9348 99.7343 57.4211 99.7343C58.6681 99.7343 59.8579 99.5707 60.9014 99.3472C64.6211 98.5498 68.8457 97.3354 71.9018 92.9839C74.7912 88.8703 76.1957 82.6744 76.4499 72.9119C76.4829 72.6358 76.5132 72.3722 76.5423 72.121L76.6029 71.6051L77.2836 71.665L77.459 71.6767C81.2476 71.8494 85.8802 71.046 88.7253 69.7244C90.9734 68.6813 98.1776 64.8779 96.4813 59.743" fill="black"/>
<path d="M90.0033 60.7415C78.7382 63.0654 77.9636 59.2513 77.9636 59.2513C89.8575 41.6025 94.8299 19.1998 90.5393 13.7169C78.8333 -1.23957 58.57 5.83391 58.2318 6.01724L58.123 6.03694C55.8973 5.57482 53.4067 5.29982 50.6071 5.25399C45.5102 5.17065 41.6435 6.59035 38.7094 8.81535C38.7094 8.81535 2.56167 -6.07632 4.24311 27.5441C4.60069 34.6964 14.4946 81.6627 26.2954 67.4767C30.6086 62.2892 34.7764 57.9032 34.7764 57.9032C36.8461 59.2782 39.3242 59.9797 41.9219 59.7279L42.1238 59.5566C42.0609 60.2006 42.0897 60.8305 42.2045 61.5763C39.1643 64.9729 40.0579 65.5691 33.9806 66.8203C27.831 68.0877 31.4435 70.3438 33.8022 70.9339C36.6617 71.6487 43.2768 72.6616 47.7465 66.4044L47.5685 67.1184C48.7594 68.0726 49.5958 73.3241 49.4556 78.085C49.3155 82.8457 49.2219 86.1142 50.1602 88.6672C51.0992 91.2203 52.0344 96.9646 60.0238 95.2529C66.6992 93.8222 70.1586 90.115 70.6401 83.9309C70.9814 79.5347 71.7545 80.1847 71.803 76.254L72.423 74.3934C73.1378 68.4339 72.5367 66.5112 76.6492 67.4055L77.6492 67.4934C80.6757 67.6309 84.6378 67.0063 86.9632 65.9256C91.97 63.6021 94.9397 59.7222 90.0026 60.7415H90.0033" fill="#336791"/>
<path d="M40.8253 30.7426C39.8102 30.6013 38.8908 30.732 38.4257 31.0843C38.1643 31.2824 38.0833 31.5119 38.0613 31.6699C38.003 32.0885 38.2961 32.5513 38.4764 32.79C38.9863 33.4657 39.731 33.9301 40.4681 34.0324C40.5749 34.0475 40.6814 34.0544 40.787 34.0544C42.0162 34.0544 43.134 33.0972 43.2325 32.3907C43.3556 31.5059 42.0711 30.9161 40.8253 30.743" fill="white"/>
<path d="M74.4556 30.7707C74.3586 30.0771 73.1246 29.8794 71.9533 30.0423C70.7836 30.2051 69.6496 30.7332 69.7443 31.4282C69.82 31.9688 70.7961 32.8915 71.9514 32.8915C72.0492 32.8915 72.1477 32.8851 72.2469 32.871C73.0181 32.7642 73.584 32.2744 73.853 31.9922C74.2621 31.5619 74.4992 31.0824 74.4556 30.7707" fill="white"/>
<path d="M93.7518 60.4775C93.3223 59.1786 91.9397 58.7608 89.6427 59.2351C82.8227 60.6426 80.3802 59.6676 79.5783 59.0771C84.8795 51.0013 89.2405 41.2392 91.5931 32.1313C92.7075 27.8169 93.323 23.8101 93.3734 20.5441C93.4291 16.9597 92.8185 14.3256 91.5594 12.7165C86.4829 6.22975 79.0321 2.75021 70.0132 2.65475C63.8128 2.58506 58.5742 4.1718 57.5586 4.61801C55.42 4.08619 53.0886 3.75968 50.5503 3.71801C45.8958 3.64263 41.8723 4.75703 38.5412 7.02862C37.0942 6.48998 33.3548 5.20627 28.7817 4.46953C20.8757 3.1968 14.5931 4.16119 10.1098 7.33733C4.76015 11.1275 2.29046 17.9025 2.76886 27.4737C2.92985 30.6938 4.7647 40.5998 7.66015 50.0866C11.4715 62.5729 15.6147 69.6415 19.9738 71.0957C20.484 71.2657 21.0723 71.3847 21.7211 71.3847C23.3113 71.3847 25.2609 70.668 27.2893 68.2294C29.7634 65.2614 32.3227 62.3655 34.9639 59.5453C36.6776 60.465 38.5602 60.9786 40.4855 61.0301C40.4893 61.0805 40.4942 61.1309 40.4988 61.1809C40.1674 61.5761 39.8428 61.9771 39.5253 62.3835C38.1912 64.0771 37.9136 64.4298 33.6192 65.3138C32.3977 65.5661 29.1533 66.2347 29.1056 68.5089C29.0541 70.9938 32.9408 72.0373 33.3836 72.1479C34.9268 72.5343 36.4136 72.7248 37.8314 72.7248C41.2795 72.7248 44.3139 71.5915 46.7389 69.3987C46.6643 78.257 47.0336 86.9858 48.0973 89.6453C48.9685 91.8226 51.0965 97.1434 57.8185 97.143C58.8049 97.143 59.8905 97.0282 61.0848 96.7722C68.1003 95.2684 71.1469 92.1676 72.3253 85.3316C72.956 81.6782 74.0382 72.9544 74.5473 68.2748C75.6215 68.6101 77.0045 68.7635 78.4995 68.7631C81.6177 68.7631 85.2158 68.1006 87.4723 67.0532C90.0071 65.876 94.5814 62.9873 93.7518 60.4775V60.4775ZM77.045 28.8563C77.0219 30.2377 76.8317 31.4919 76.6302 32.801C76.4132 34.2089 76.1889 35.6646 76.1325 37.4316C76.0768 39.1513 76.2916 40.9392 76.4992 42.6684C76.9189 46.1608 77.3495 49.7563 75.6825 53.304C75.4056 52.8133 75.1589 52.3062 74.9439 51.7854C74.7367 51.2832 74.2867 50.4763 73.6636 49.3597C71.2397 45.0127 65.5636 34.8332 68.4692 30.6794C69.3348 29.443 71.5314 28.1718 77.045 28.8563V28.8563ZM70.3617 5.4521C78.4427 5.63051 84.8352 8.65362 89.3609 14.437C92.8321 18.8729 89.0098 39.0574 77.9442 56.4707C77.833 56.3292 77.7211 56.1881 77.6086 56.0476L77.4685 55.8726C80.328 51.1502 79.7689 46.4779 79.2711 42.3354C79.0666 40.6354 78.8734 39.0298 78.9227 37.5214C78.9734 35.9229 79.1848 34.5517 79.3893 33.226C79.6405 31.5923 79.8961 29.9017 79.8257 27.9089C79.8783 27.6998 79.8995 27.4529 79.8719 27.1597C79.692 25.2487 77.5102 19.5294 73.0632 14.3529C70.6306 11.5214 67.0833 8.35286 62.2397 6.21574C64.323 5.78392 67.1719 5.38127 70.3617 5.4521V5.4521ZM25.1427 66.4445C22.9079 69.1316 21.3647 68.6165 20.8571 68.4476C17.5503 67.3445 13.7132 60.3551 10.3302 49.2718C7.40296 39.6816 5.69235 30.0381 5.55674 27.3339C5.12947 18.7816 7.20258 12.8214 11.7189 9.61839C19.0689 4.40627 31.153 7.52597 36.0086 9.10816C35.9389 9.1771 35.8662 9.2415 35.7973 9.31157C27.8291 17.3585 28.0181 31.107 28.0378 31.9476C28.037 32.2718 28.0643 32.7309 28.1014 33.3623C28.2386 35.6748 28.4939 39.9786 27.812 44.8525C27.1787 49.3816 28.5749 53.8146 31.642 57.015C31.9567 57.3428 32.2876 57.6548 32.6333 57.9498C31.2681 59.4119 28.3011 62.6453 25.1427 66.4445V66.4445ZM33.6575 55.0835C31.1855 52.504 30.0628 48.9161 30.5768 45.2388C31.2965 40.0904 31.031 35.6063 30.8882 33.1972C30.8681 32.8601 30.8503 32.5646 30.8401 32.3316C32.0041 31.2994 37.3984 28.4093 41.2454 29.2907C43.0007 29.6926 44.0704 30.8881 44.5151 32.9441C46.8166 43.5892 44.8196 48.026 43.2151 51.5915C42.8844 52.326 42.5719 53.0203 42.3052 53.7385L42.0984 54.2938C41.5749 55.6976 41.0878 57.0029 40.7859 58.2422C38.1579 58.2347 35.6014 57.1119 33.6575 55.0832V55.0835ZM34.0609 69.4396C33.2935 69.2479 32.6033 68.915 32.1984 68.6388C32.5367 68.4798 33.1386 68.2631 34.1825 68.0479C39.2344 67.0082 40.0147 66.2741 41.7185 64.1108C42.109 63.6146 42.5518 63.0525 43.1651 62.3676L43.1658 62.3669C44.0791 61.3441 44.4969 61.5176 45.2545 61.832C45.8685 62.0858 46.4666 62.8555 46.709 63.7025C46.8238 64.1025 46.9526 64.8616 46.531 65.4525C42.9719 70.4358 37.7855 70.3718 34.0609 69.4396V69.4396ZM60.4999 94.0426C54.3196 95.3669 52.1314 92.2135 50.6893 88.6085C49.7586 86.2813 49.3011 75.7866 49.6257 64.1968C49.6299 64.0426 49.6079 63.8938 49.5655 63.7536C49.5275 63.4769 49.4698 63.2032 49.3927 62.9347C48.9102 61.2483 47.734 59.8377 46.323 59.2529C45.7624 59.0207 44.7336 58.5945 43.4973 58.9108C43.7609 57.8245 44.2181 56.5976 44.7139 55.2691L44.9219 54.7104C45.156 54.0805 45.4499 53.4279 45.7605 52.7369C47.4397 49.0066 49.7393 43.8972 47.2435 32.3544C46.3086 28.0309 43.1867 25.9195 38.4541 26.4101C35.617 26.7036 33.0211 27.8483 31.7264 28.5048C31.448 28.6457 31.1935 28.782 30.9556 28.9146C31.317 24.5585 32.6821 16.4176 37.7889 11.2669C41.0045 8.02445 45.2867 6.42293 50.5041 6.5093C60.7844 6.67748 67.3768 11.9532 71.0973 16.3498C74.3033 20.1381 76.0393 23.9544 76.7321 26.0127C71.5219 25.4828 67.9783 26.5112 66.1821 29.0794C62.2742 34.6657 68.32 45.5082 71.2257 50.7191C71.7586 51.6741 72.2185 52.4995 72.3632 52.8502C73.3094 55.1434 74.5344 56.6744 75.4287 57.7919C75.703 58.1343 75.9689 58.4665 76.1711 58.7566C74.5931 59.2116 71.7586 60.2627 72.017 65.5169C71.8086 68.1532 70.3272 80.4964 69.5745 84.8574C68.581 90.6188 66.4609 92.7646 60.4999 94.043V94.0426ZM86.2969 64.5214C84.6833 65.2703 81.9829 65.832 79.4177 65.9529C76.5844 66.0854 75.142 65.6354 74.8026 65.3585C74.6435 62.0843 75.862 61.7423 77.1518 61.3801C77.3545 61.3233 77.5522 61.2676 77.7431 61.201C77.8617 61.2976 77.9916 61.3934 78.134 61.4873C80.4113 62.9904 84.473 63.1525 90.2075 61.9688L90.2704 61.9563C89.4969 62.6794 88.1734 63.6498 86.2969 64.5214Z" fill="white"/>
</svg>
