<svg width="100" height="100" viewBox="0 0 100 100" fill="none" xmlns="http://www.w3.org/2000/svg">
<path d="M26.4875 37.5C15.5 40.3333 8.33333 45.1875 8.33333 50.7292C8.33333 59.5083 26.6875 66.6667 49.375 66.6667C52.4583 66.6667 54.625 66.5042 57.5 66.2625" stroke="#FFD233" stroke-width="8.5" stroke-linecap="round" stroke-linejoin="round"/>
<path d="M40.9875 66.25C39.2667 63.7667 37.6292 61.5292 36.0708 58.75C24.6083 38.3333 21.5375 18.0417 29.2792 13.4458C34.0708 10.5417 41.975 14.5 50.0042 22.8375" stroke="#FFD233" stroke-width="8.5" stroke-linecap="round" stroke-linejoin="round"/>
<path d="M26.7875 64.1125C23.8625 75.3125 24.4542 83.7625 29.1208 86.5917C36.55 91.0917 51.5667 78.4333 62.6333 58.2417C64.1333 55.45 65.4792 52.7042 66.6667 50" stroke="#FFD233" stroke-width="8.5" stroke-linecap="round" stroke-linejoin="round"/>
<path d="M50 77.1667C58.0333 85.5 65.9042 89.4583 70.7417 86.5542C78.45 81.9625 75.4125 61.6708 63.9375 41.25C62.3375 38.4292 60.7 36.2333 59.0208 33.75" stroke="#FFD233" stroke-width="8.5" stroke-linecap="round" stroke-linejoin="round"/>
<path d="M73.5833 62.5C84.4667 59.6375 91.6667 54.7917 91.6667 49.2667C91.6667 40.475 73.3 33.3333 50.6458 33.3333C47.5333 33.3333 45.3708 33.4542 42.5 33.6958" stroke="#FFD233" stroke-width="8.5" stroke-linecap="round" stroke-linejoin="round"/>
<path d="M33.3333 50.0001C34.5208 47.2501 35.8625 44.5501 37.3667 41.7584C48.3958 21.5751 63.4208 8.8834 70.8917 13.4209C75.5167 16.2501 76.15 24.6959 73.225 35.8917" stroke="#FFD233" stroke-width="8.5" stroke-linecap="round" stroke-linejoin="round"/>
<path d="M51.0833 50.0625H51.0417C51 50.6042 50.5417 51.0625 49.9583 51.0625C49.6793 51.0487 49.4161 50.9289 49.2225 50.7275C49.0289 50.5262 48.9195 50.2585 48.9167 49.9792C48.9167 49.3958 49.375 48.9375 49.9167 48.9375H49.875C50.4167 48.8958 50.9167 49.3958 50.9167 49.9375" stroke="#FFD233" stroke-width="8.5" stroke-linecap="round" stroke-linejoin="round"/>
</svg>
