<svg width="145" height="143" viewBox="0 0 145 143" fill="none" xmlns="http://www.w3.org/2000/svg">
<path d="M72.5 97.6758C68.1204 97.6932 63.7986 96.75 59.8892 94.924C55.98 93.0978 52.5943 90.4408 50.0104 87.1708L32 96.7364C32.6854 97.467 33.4967 98.0874 34.4014 98.5726L66.4504 115.654C68.3235 116.539 70.3967 117 72.5 117C74.6033 117 76.6764 116.539 78.5496 115.654L110.599 98.5726C111.503 98.0874 112.315 97.467 113 96.7364L95.036 87C92.4672 90.3074 89.0832 93.001 85.1639 94.8576C81.2449 96.7142 76.9035 97.6804 72.5 97.6758Z" fill="white"/>
<path d="M44.5067 71.5899C44.5228 65.4189 47.1317 59.4695 51.8346 54.8788C56.5374 50.2882 63.0048 47.3782 70 46.7051V28C68.9387 28.1935 67.9177 28.5292 66.9729 28.9954L34.1486 45.5853C32.3645 46.6319 30.881 48.0265 29.8144 49.66C28.7476 51.2933 28.1267 53.1209 28 55V88.1796C28.0146 89.137 28.1897 90.0875 28.5201 91L46.9663 81.6683C45.3533 78.4961 44.5155 75.063 44.5067 71.5899Z" fill="white"/>
<path d="M111.144 45.5737L79.8829 28.9948C78.9833 28.5288 78.0109 28.1933 77 28V46.6513C81.2469 47.0941 85.3216 48.448 88.8958 50.6046C92.47 52.761 95.444 55.6596 97.5782 59.0669C99.7124 62.4742 100.947 66.2951 101.183 70.2218C101.419 74.1485 100.65 78.0712 98.9369 81.6744L116.505 91C116.819 90.0879 116.986 89.1382 117 88.1817V55.0238C116.886 53.1388 116.298 51.3041 115.282 49.6641C114.265 48.024 112.849 46.6238 111.144 45.5737Z" fill="white"/>
<path d="M135.058 29.146L82.4427 2.09525C79.3571 0.717414 75.9524 0 72.5 0C69.0476 0 65.6433 0.717414 62.5575 2.09525L9.94247 29.146C7.05448 30.8209 4.64997 33.0769 2.92266 35.7317C1.19557 38.3864 0.194391 41.3655 0 44.4281V98.5294C0.190766 101.599 1.19014 104.585 2.91722 107.247C4.64431 109.909 7.05085 112.172 9.94247 113.854L62.5575 140.905C65.6433 142.283 69.0476 143 72.5 143C75.9524 143 79.3571 142.283 82.4427 140.905L135.058 113.854C137.949 112.172 140.356 109.909 142.083 107.247C143.81 104.585 144.809 101.599 145 98.5294V44.4281C144.806 41.3655 143.804 38.3864 142.077 35.7317C140.35 33.0769 137.946 30.8209 135.058 29.146ZM128.302 92.3065C128.148 94.6644 127.374 96.957 126.044 99.0007C124.714 101.045 122.864 102.782 120.643 104.075L80.1114 124.903C77.7438 125.967 75.1286 126.521 72.4762 126.521C69.8238 126.521 67.2084 125.967 64.8411 124.903L24.3571 104.075C22.1356 102.782 20.2857 101.045 18.9558 99.0007C17.6257 96.957 16.8524 94.6644 16.6979 92.3065V50.6935C16.8524 48.3356 17.6257 46.043 18.9558 43.9993C20.2857 41.9554 22.1356 40.2174 24.3571 38.9248L64.7933 18.0972C67.1608 17.0331 69.776 16.4786 72.4286 16.4786C75.081 16.4786 77.6964 17.0331 80.064 18.0972L120.595 38.9248C122.825 40.2128 124.685 41.9488 126.023 43.9928C127.362 46.0367 128.142 48.332 128.302 50.6935V92.3065Z" fill="white"/>
<path d="M52 71.5C52 74.9611 53.2022 78.3446 55.4547 81.2224C57.7072 84.1004 60.9091 86.3433 64.6551 87.668C68.4009 88.9924 72.5228 89.3389 76.4995 88.6638C80.4761 87.9885 84.1287 86.3219 86.9955 83.8744C89.8626 81.4271 91.8151 78.3088 92.6062 74.9142C93.397 71.5194 92.9911 68.0008 91.4395 64.8031C89.8879 61.6053 87.2607 58.8722 83.8893 56.9493C80.5182 55.0263 76.5544 54 72.5 54C67.0632 54 61.8489 55.8437 58.0045 59.1257C54.1598 62.4076 52 66.8588 52 71.5Z" fill="white"/>
</svg>
